<svg width="1299" height="538" viewBox="0 0 1299 538" fill="none" stroke-dasharray="80" stroke-linecap="round" xmlns="http://www.w3.org/2000/svg">
<path d="M1292.92 34.6066C1295.58 41.6775 1294.66 50.3675 1289.47 60.887C1284.28 71.4128 1275.02 83.3283 1261.81 96.4171C1235.4 122.576 1193.95 152.743 1140.3 185.131C1033.06 249.872 877.848 323.055 698.993 390.431C520.187 457.789 352.32 502.577 226.071 522.06C162.915 531.806 110.368 535.189 72.145 531.977C53.02 530.37 37.7095 527.129 26.5122 522.353C15.2965 517.57 8.69484 511.469 6.03452 504.407C3.38132 497.364 4.36062 488.593 9.71194 477.885C15.0603 467.183 24.5541 455.024 38.0351 441.647C64.9765 414.913 107.151 383.986 161.509 350.84C270.168 284.583 426.803 209.887 605.645 142.516C784.44 75.1624 950.871 31.8936 1075.68 13.9262C1138.12 4.93812 1189.95 2.31075 1227.63 6.08338C1246.48 7.97091 1261.57 11.4405 1272.62 16.3734C1283.68 21.313 1290.24 27.5046 1292.92 34.6066Z" stroke="#37058E" stroke-width="8"/>
</svg>
