<svg width="911" height="373" viewBox="0 0 911 373" fill="none" xmlns="http://www.w3.org/2000/svg">
<path d="M904.877 23.833C906.316 27.6656 905.874 32.7863 902.291 39.6311C898.713 46.4666 892.309 54.3914 883.031 63.2586C864.504 80.9653 835.424 101.585 797.713 123.883C722.365 168.434 613.455 219.164 488.084 266.232C362.77 313.279 245.374 345.015 157.304 359.324C113.231 366.485 76.7395 369.241 50.3609 367.462C37.1515 366.571 26.7692 364.559 19.3215 361.573C11.831 358.57 8.01037 354.883 6.5754 351.061C5.14989 347.264 5.61788 342.096 9.32253 335.108C13.0133 328.146 19.5827 320.052 29.0544 310.986C47.9671 292.884 77.5598 271.744 115.774 248.93C192.132 203.345 302.047 151.583 427.402 104.521C552.702 57.4792 669.074 26.7819 756.117 13.5069C799.677 6.8636 835.654 4.62112 861.645 6.77936C874.658 7.85997 884.884 10.0232 892.227 13.1111C899.606 16.2143 903.423 19.9589 904.877 23.833Z" stroke="#E62A2A" stroke-width="10"/>
</svg>
