<svg width="655" height="272" viewBox="0 0 655 272" fill="none" xmlns="http://www.w3.org/2000/svg">
<path d="M648.849 19.0329C649.814 21.5949 649.655 25.1205 647.258 30.0296C644.857 34.9493 640.45 40.7169 633.919 47.2277C620.878 60.2268 600.232 75.343 573.282 91.6665C519.456 124.269 441.403 161.142 351.344 195.068C261.346 228.971 176.896 251.421 113.46 261.104C81.7035 265.952 55.4572 267.561 36.5049 265.909C27.0123 265.081 19.6337 263.457 14.3852 261.194C9.11677 258.922 6.58641 256.279 5.62548 253.728C4.67335 251.2 4.84298 247.644 7.32716 242.623C9.80919 237.606 14.3343 231.71 21.0053 225.05C34.3227 211.756 55.3359 196.253 82.6426 179.546C137.185 146.177 215.95 108.54 305.992 74.6203C395.976 40.7228 479.693 19.0444 542.395 10.1274C573.784 5.66349 599.662 4.4338 618.337 6.36417C627.688 7.33087 634.958 9.06423 640.135 11.4012C645.328 13.7454 647.869 16.4325 648.849 19.0329Z" stroke="#B93F1A" stroke-width="10"/>
</svg>
