<svg width="649" height="270" viewBox="0 0 649 270" fill="none" xmlns="http://www.w3.org/2000/svg">
<path d="M643.559 19.1447C644.683 22.13 644.438 26.0072 642.029 31.0731C639.613 36.1525 635.2 42.0205 628.729 48.5717C615.804 61.6576 595.351 76.7933 568.698 93.0736C515.452 125.598 438.203 162.247 349.042 195.835C259.929 229.404 176.228 251.472 113.277 260.811C81.7701 265.484 55.6586 266.939 36.7385 265.135C27.2664 264.232 19.8216 262.531 14.4641 260.155C9.0964 257.774 6.26695 254.926 5.14579 251.95C4.03147 248.991 4.29497 245.08 6.78778 239.908C9.28165 234.734 13.8106 228.739 20.4178 222.04C33.6143 208.659 54.4269 193.136 81.4313 176.473C135.383 143.18 213.334 105.765 302.482 72.182C391.582 38.6174 474.565 17.3214 536.796 8.75097C567.942 4.46158 593.694 3.38813 612.342 5.47213C621.676 6.51528 629.013 8.32735 634.3 10.7795C639.594 13.2352 642.423 16.1296 643.559 19.1447Z"/>
</svg>
