<svg className="ellipse-anim" width="1064" height="440" viewBox="0 0 1064 440" fill="none" xmlns="http://www.w3.org/2000/svg">
<path d="M1058.71 28.4455C1060.76 33.8802 1060.06 40.6891 1055.83 49.1342C1051.6 57.5822 1044.04 67.2081 1033.21 77.8365C1011.57 99.0734 977.595 123.634 933.601 150.059C845.672 202.873 718.445 262.705 571.879 317.917C425.36 373.112 287.884 409.974 184.56 426.188C132.868 434.3 89.9164 437.212 58.7274 434.745C43.1185 433.511 30.6854 430.945 21.6393 427.154C12.5708 423.355 7.41328 418.552 5.36925 413.126C3.33247 407.719 4.07092 400.847 8.43864 392.244C12.8014 383.65 20.5514 373.825 31.6032 362.961C53.6852 341.256 88.251 316.076 132.829 289.035C221.928 234.987 350.32 173.925 496.874 118.717C643.381 63.5263 779.675 27.9016 881.815 12.9207C932.916 5.42583 975.275 3.12752 1006.02 6.04915C1021.4 7.51123 1033.65 10.2614 1042.58 14.1782C1051.52 18.1031 1056.65 22.9791 1058.71 28.4455Z" stroke="#380691" stroke-width="8"/>
</svg>
