<svg width="312" height="299" viewBox="0 0 312 299" fill="none" xmlns="http://www.w3.org/2000/svg">
<path d="M8.81027 297.638C-28.6576 260.04 68.1387 124.263 112.383 76.0332L132.711 134.627C72.5856 190.018 3.62854 270.934 8.81027 297.638Z" fill="url(#paint0_linear_202_20910)"/>
<path d="M31.9297 17.4269C49.0685 -18.4464 102.57 7.40499 155.52 39.3001L156.29 115.88C148.907 121.823 139.791 128.851 132.003 135.765L111.649 77.216C72.306 38.5105 43.8875 19.0213 31.9297 17.4269Z" fill="url(#paint1_linear_202_20910)"/>
<path d="M302.176 298.435C342.036 264.156 243.981 124.249 199.737 76.0195L179.01 135.809C238.799 190.815 305.763 271.729 302.176 298.435Z" fill="url(#paint2_linear_202_20910)"/>
<path d="M280.253 16.2306C262.378 -12.5274 215.681 3.07761 155.493 39.3497L156.29 115.88C163.673 121.822 171.222 128.895 179.01 135.809L199.737 76.0198C239.079 37.3142 268.295 17.825 280.253 16.2306Z" fill="url(#paint3_linear_202_20910)"/>
<defs>
<linearGradient id="paint0_linear_202_20910" x1="132.308" y1="136.221" x2="66.1409" y2="120.676" gradientUnits="userSpaceOnUse">
<stop stop-color="white"/>
<stop offset="0.445152" stop-color="#B2CE7B"/>
<stop offset="1" stop-color="#5C8851"/>
</linearGradient>
<linearGradient id="paint1_linear_202_20910" x1="156.201" y1="116.69" x2="127.901" y2="13.4538" gradientUnits="userSpaceOnUse">
<stop stop-color="white"/>
<stop offset="0.395833" stop-color="#9BC054"/>
<stop offset="1" stop-color="#5C8850"/>
</linearGradient>
<linearGradient id="paint2_linear_202_20910" x1="180.12" y1="136.222" x2="246.286" y2="120.677" gradientUnits="userSpaceOnUse">
<stop stop-color="white"/>
<stop offset="0.445152" stop-color="#B2CE7B"/>
<stop offset="1" stop-color="#5C8851"/>
</linearGradient>
<linearGradient id="paint3_linear_202_20910" x1="156.228" y1="116.69" x2="184.528" y2="13.4538" gradientUnits="userSpaceOnUse">
<stop stop-color="white"/>
<stop offset="0.395833" stop-color="#9BC054"/>
<stop offset="1" stop-color="#5C8850"/>
</linearGradient>
</defs>
</svg>
